<?xml version="1.0" encoding="UTF-8" standalone="no"?>
<!-- Creator: CorelDRAW X6 -->

<svg
   xmlns:dc="http://purl.org/dc/elements/1.1/"
   xmlns:cc="http://creativecommons.org/ns#"
   xmlns:rdf="http://www.w3.org/1999/02/22-rdf-syntax-ns#"
   xmlns:svg="http://www.w3.org/2000/svg"
   xmlns="http://www.w3.org/2000/svg"
   xmlns:sodipodi="http://sodipodi.sourceforge.net/DTD/sodipodi-0.dtd"
   xmlns:inkscape="http://www.inkscape.org/namespaces/inkscape"
   xml:space="preserve"
   width="528"
   height="528"
   version="1.1"
   style="clip-rule:evenodd;fill-rule:evenodd;image-rendering:optimizeQuality;shape-rendering:geometricPrecision;text-rendering:geometricPrecision"
   viewBox="0 0 5866.6138 5866.6138"
   id="svg2"
   inkscape:version="0.91 r13725"
   sodipodi:docname="flying-bird.svg"><metadata
     id="metadata84"><rdf:RDF><cc:Work
         rdf:about=""><dc:format>image/svg+xml</dc:format><dc:type
           rdf:resource="http://purl.org/dc/dcmitype/StillImage" /><dc:title></dc:title></cc:Work></rdf:RDF></metadata><sodipodi:namedview
     pagecolor="#ffffff"
     bordercolor="#666666"
     borderopacity="1"
     objecttolerance="10"
     gridtolerance="10"
     guidetolerance="10"
     inkscape:pageopacity="0"
     inkscape:pageshadow="2"
     inkscape:window-width="1070"
     inkscape:window-height="644"
     id="namedview82"
     showgrid="false"
     inkscape:zoom="0.47700045"
     inkscape:cx="-80.123519"
     inkscape:cy="190.36166"
     inkscape:window-x="66"
     inkscape:window-y="44"
     inkscape:window-maximized="0"
     inkscape:current-layer="Layer_x0020_1"
     units="px"
     borderlayer="false"
     fit-margin-top="0"
     fit-margin-left="0"
     fit-margin-right="0"
     fit-margin-bottom="0" /><defs
     id="defs4"><style
       type="text/css"
       id="style6"><![CDATA[
    .fil1 {fill:#FEFEFE}
    .fil2 {fill:#3D3D3D;fill-rule:nonzero}
    .fil0 {fill:url(#id1)}
   ]]></style><clipPath
       id="id0"
       style="clip-rule:nonzero"><path
         d="m 5555,9806 c -1690,0 -3061,-220 -3061,-492 0,-272 1370,-492 3061,-492 1690,0 3061,220 3061,492 0,272 -1370,492 -3061,492 l 0,0 z"
         id="path9"
         inkscape:connector-curvature="0" /></clipPath><radialGradient
       id="id1"
       gradientUnits="userSpaceOnUse"
       cx="5666.6699"
       cy="5666.6699"
       r="4777.7798"
       fx="5666.6699"
       fy="5666.6699"><stop
         offset="0"
         style="stop-color:#FEFEFE"
         id="stop12" /><stop
         offset="0.231373"
         style="stop-color:#FEFEFE"
         id="stop14" /><stop
         offset="1"
         style="stop-color:#A1B5C2"
         id="stop16" /></radialGradient></defs><g
     id="Layer_x0020_1"
     transform="translate(-3009.9621,-1803.9967)"><metadata
       id="CorelCorpID_0Corel-Layer" /><g
       id="g78"
       clip-path="url(#id0)" /><path
       inkscape:connector-curvature="0"
       style="clip-rule:evenodd;fill:#3d3d3d;fill-rule:evenodd;image-rendering:optimizeQuality;shape-rendering:geometricPrecision;text-rendering:geometricPrecision;fill-opacity:1"
       class="fil2"
       d="m 7423.8427,3527.5176 c 21,-133 146,-224 279,-203 133,21 224,146 203,279 -21,133 -146,224 -279,203 -133,-21 -224,-146 -203,-279 z m 994,334 382,-746 -643,111 c -196,-254 -485,-437 -827,-492 -618,-98 -1202,257 -1417,818 l 0,0 0,0 c -12,33 -24,66 -34,100 -32,92 -68,180 -106,265 -495,-62 -1165,-282 -1786,-932 -220,887 -71,1771 614,2330 -758,537 -1521.0001,679 -1521.0001,679 0,0 1970.0001,1081 3617.0001,552 1647,-529 1719,-2352 1719,-2352 l 0,0 c 15,-113 16,-224 3,-333 z"
       id="path74" /><path
       inkscape:connector-curvature="0"
       style="clip-rule:evenodd;fill:#3d3d3d;fill-rule:evenodd;image-rendering:optimizeQuality;shape-rendering:geometricPrecision;text-rendering:geometricPrecision"
       class="fil2"
       d="m 7764.8427,3507.5176 c -30,-5 -50,-33 -46,-63 5,-30 33,-50 63,-46 30,5 50,33 46,63 -5,30 -33,50 -63,46 z m 4,-120 c -78,-12 -151,41 -163,118 -12,78 41,151 118,163 78,12 150,-41 163,-118 12,-78 -41,-151 -118,-163 z"
       id="path76" /></g></svg>