<?xml version="1.0" encoding="UTF-8" standalone="no"?>
<!-- Generator: Adobe Illustrator 16.0.0, SVG Export Plug-In . SVG Version: 6.00 Build 0)  -->

<svg
   xmlns:dc="http://purl.org/dc/elements/1.1/"
   xmlns:cc="http://creativecommons.org/ns#"
   xmlns:rdf="http://www.w3.org/1999/02/22-rdf-syntax-ns#"
   xmlns:svg="http://www.w3.org/2000/svg"
   xmlns="http://www.w3.org/2000/svg"
   xmlns:sodipodi="http://sodipodi.sourceforge.net/DTD/sodipodi-0.dtd"
   xmlns:inkscape="http://www.inkscape.org/namespaces/inkscape"
   version="1.1"
   id="Capa_1"
   x="0px"
   y="0px"
   width="512px"
   height="512px"
   xml:space="preserve"
   inkscape:version="0.91 r13725"
   sodipodi:docname="peace-dove.svg"
   inkscape:export-filename="D:\Develop\Projects\askasoft\aska-soft.github.io\logo\peace-dove-blue.png"
   inkscape:export-xdpi="90"
   inkscape:export-ydpi="90"><metadata
     id="metadata48"><rdf:RDF><cc:Work
         rdf:about=""><dc:format>image/svg+xml</dc:format><dc:type
           rdf:resource="http://purl.org/dc/dcmitype/StillImage" /></cc:Work></rdf:RDF></metadata><defs
     id="defs46" /><sodipodi:namedview
     pagecolor="#ffffff"
     bordercolor="#666666"
     borderopacity="1"
     objecttolerance="10"
     gridtolerance="10"
     guidetolerance="10"
     inkscape:pageopacity="0"
     inkscape:pageshadow="2"
     inkscape:window-width="1110"
     inkscape:window-height="626"
     id="namedview44"
     showgrid="false"
     inkscape:zoom="0.4609375"
     inkscape:cx="256"
     inkscape:cy="256"
     inkscape:window-x="0"
     inkscape:window-y="30"
     inkscape:window-maximized="0"
     inkscape:current-layer="Capa_1" /><g
     id="g3"
     transform="translate(36.881356,30.372881)"><g
       id="Layer_3_9_"><g
         id="g6"><path
           d="m 391.133,258.709 c 31.371,-40.692 42.123,-95.08 42.709,-155.428 -43.557,-0.889 -149.99,12.735 -177.463,59.879 C 237.619,126.587 208.682,95.544 164.852,93.082 106.954,89.829 88.032,146.009 45.038,169.768 54.936,153.234 58.007,134.747 44.2,118.704 43.012,114.122 40.393,106.987 34.872,101.436 26.022,92.54 13.065,91.08 13.065,91.08 c 0,0 1.393,12.964 10.242,21.859 5.039,5.066 11.408,7.719 15.959,9.065 5.154,5.763 8.537,12.539 8.771,20.611 0.244,8.479 -3.316,16.65 -7.557,23.79 -8.049,13.55 -20.35,25.293 -33.266,34.207 -3.1,2.139 -0.162,7.237 2.969,5.077 9.936,-6.857 20.824,-16.563 29.203,-27.599 36.869,29.402 38.092,83.027 69.377,121.503 63.631,78.258 184.152,63.63 248.293,26.101 63.996,-37.446 86.535,-67.793 86.535,-67.793 0,0 -41.493,7.042 -52.458,0.808 z M 120.166,188.275 c 0.314,0.002 0.684,0.005 1.08,0.007 -0.443,-0.004 -0.799,-0.006 -1.08,-0.007 z m 1.592,0.009 c 0.037,0 0.076,0.001 0.115,0.001 -0.043,0 -0.074,-0.001 -0.117,-0.001 l -0.002,0 c -19.926,-0.122 -19.82,-30.896 0.092,-30.945 20.097,-0.052 20.074,31.064 -0.088,30.945 z"
           id="path8"
           inkscape:connector-curvature="0"
           style="fill:#006df0" /><path
           d="m 70.611,111.527 c 4.846,-11.574 1.254,-24.107 1.254,-24.107 0,0 -11.453,6.232 -16.301,17.808 -4.848,11.574 -1.254,24.106 -1.254,24.106 0,0 11.454,-6.231 16.301,-17.807 z"
           id="path10"
           inkscape:connector-curvature="0"
           style="fill:#006df0" /><path
           d="m 23.127,145.666 c 12.529,-0.675 22.248,-9.367 22.248,-9.367 0,0 -10.596,-7.596 -23.125,-6.923 C 9.719,130.051 0,138.742 0,138.742 c 0,0 10.596,7.598 23.127,6.924 z"
           id="path12"
           inkscape:connector-curvature="0"
           style="fill:#006df0" /></g></g></g><g
     id="g14" /><g
     id="g16" /><g
     id="g18" /><g
     id="g20" /><g
     id="g22" /><g
     id="g24" /><g
     id="g26" /><g
     id="g28" /><g
     id="g30" /><g
     id="g32" /><g
     id="g34" /><g
     id="g36" /><g
     id="g38" /><g
     id="g40" /><g
     id="g42" /></svg>